<?xml version="1.0" encoding="utf-8"?>
<!-- Generator: Adobe Illustrator 16.0.0, SVG Export Plug-In . SVG Version: 6.00 Build 0)  -->
<!DOCTYPE svg PUBLIC "-//W3C//DTD SVG 1.1//EN" "http://www.w3.org/Graphics/SVG/1.1/DTD/svg11.dtd">
<svg version="1.1" id="Layer_1" xmlns="http://www.w3.org/2000/svg" xmlns:xlink="http://www.w3.org/1999/xlink" x="0px" y="0px"
	 width="550.801px" height="550.326px" viewBox="30.363 120.837 550.801 550.326"
	 enable-background="new 30.363 120.837 550.801 550.326" xml:space="preserve">
<g>
	<g>
		<path fill="#25C22F" d="M306,120.837C154.186,120.837,30.363,244.186,30.363,396c0,151.812,123.349,275.163,275.637,275.163
			c151.812,0,275.164-123.351,275.164-275.163C581.164,244.186,457.812,120.837,306,120.837z"/>
		<path fill="#FBFBFB" d="M396.458,382.413H319.69v-77.107c0-7.812-6.113-13.926-13.927-13.926c-7.812,0-13.927,6.113-13.927,13.926
			v76.768h-76.768c-7.812,0-13.927,6.113-13.927,13.926s6.115,13.928,13.927,13.928h76.768v76.768
			c0,7.812,6.115,13.926,13.927,13.926c7.813,0,13.927-6.113,13.927-13.926v-76.768h76.768c7.812,0,13.927-6.115,13.927-13.928
			S404.27,382.413,396.458,382.413z"/>
	</g>
</g>
</svg>
