<?xml version="1.0" encoding="utf-8"?>
<!-- Generator: Adobe Illustrator 16.0.0, SVG Export Plug-In . SVG Version: 6.00 Build 0)  -->
<!DOCTYPE svg PUBLIC "-//W3C//DTD SVG 1.1//EN" "http://www.w3.org/Graphics/SVG/1.1/DTD/svg11.dtd">
<svg version="1.1" id="Layer_1" xmlns="http://www.w3.org/2000/svg" xmlns:xlink="http://www.w3.org/1999/xlink" x="0px" y="0px"
	 width="29px" height="29px" viewBox="280.231 396.428 29 29" enable-background="new 280.231 396.428 29 29" xml:space="preserve">
<path fill="#6e6e6e" d="M295.986,407.178c0-0.688-0.564-1.25-1.255-1.25s-1.255,0.562-1.255,1.25s0.564,1.25,1.255,1.25
	S295.986,407.865,295.986,407.178z M295.986,414.678c0-0.688-0.564-1.25-1.255-1.25s-1.255,0.562-1.255,1.25s0.564,1.25,1.255,1.25
	S295.986,415.365,295.986,414.678z M295.986,410.928c0-0.688-0.564-1.25-1.255-1.25s-1.255,0.562-1.255,1.25s0.564,1.25,1.255,1.25
	S295.986,411.615,295.986,410.928z"/>
</svg>
