<?xml version="1.0" encoding="utf-8"?>
<!-- Generator: Adobe Illustrator 16.0.0, SVG Export Plug-In . SVG Version: 6.00 Build 0)  -->
<!DOCTYPE svg PUBLIC "-//W3C//DTD SVG 1.1//EN" "http://www.w3.org/Graphics/SVG/1.1/DTD/svg11.dtd">
<svg version="1.1" id="Layer_1" xmlns="http://www.w3.org/2000/svg" xmlns:xlink="http://www.w3.org/1999/xlink" x="0px" y="0px"
	 width="550.801px" height="550.326px" viewBox="30.363 120.837 550.801 550.326"
	 enable-background="new 30.363 120.837 550.801 550.326" xml:space="preserve">
<g>
	<g>
		<path fill="#002E74" d="M306,120.837C154.186,120.837,30.363,244.186,30.363,396c0,151.812,123.349,275.163,275.637,275.163
			c151.812,0,275.164-123.352,275.164-275.163C581.164,244.186,457.812,120.837,306,120.837z"/>
	</g>
</g>
<path fill="#FFFFFF" d="M151.899,408.115c-2.423-2.425-3.635-6.059-3.635-8.48c0-2.424,1.212-6.058,3.635-8.479l16.961-16.962
	c4.846-4.848,12.115-4.848,16.961,0l1.211,1.212l66.634,71.479c2.423,2.424,6.058,2.424,8.48,0l162.349-168.404h1.212l0,0
	c4.846-4.846,12.114-4.846,16.961,0l16.961,16.963c4.846,4.846,4.846,12.114,0,16.962l0,0L265.783,513.521
	c-2.423,2.423-4.847,3.634-8.481,3.634c-3.634,0-6.058-1.211-8.479-3.634l-94.5-101.771L151.899,408.115L151.899,408.115z"/>
</svg>
