<svg style="position: absolute; width: 0; height: 0; overflow: hidden;" version="1.1" xmlns="http://www.w3.org/2000/svg">
<defs>
<symbol id="icon-icon-plus-green" viewBox="0 0 32 32">
<title>icon-plus-green</title>
<path fill="#022963" d="M16 0c-8.873 0-16 7.127-16 16s7.127 16 16 16 16-7.127 16-16-7.127-16-16-16z"></path>
<path fill="#FFFFFF" d="M16 6.933c-5.028 0-9.067 4.038-9.067 9.067s4.038 9.067 9.067 9.067 9.067-4.038 9.067-9.067-4.038-9.067-9.067-9.067zM20.946 16.413c0 0.247-0.164 0.412-0.413 0.412h-3.502c-0.125 0-0.207 0.082-0.207 0.207v3.502c0 0.247-0.163 0.413-0.412 0.413h-0.823c-0.247 0-0.413-0.164-0.413-0.413v-3.502c0-0.125-0.082-0.207-0.206-0.207h-3.503c-0.246 0-0.412-0.163-0.412-0.412v-0.823c0-0.247 0.164-0.413 0.412-0.413h3.503c0.124 0 0.206-0.082 0.206-0.206v-3.503c0-0.246 0.164-0.412 0.413-0.412h0.823c0.247 0 0.412 0.164 0.412 0.412v3.503c0 0.124 0.082 0.206 0.207 0.206h3.502c0.247 0 0.413 0.164 0.413 0.413v0.823z"></path>
</symbol>
<symbol id="icon-icon-btn-texto" viewBox="0 0 35 32">
<title>icon-btn-texto</title>
<path d="M10.193 6.621h1.244l8.482 18.498h-1.527l-2.798-6.095h-9.585l-2.798 6.095h-1.555l8.537-18.498zM15.197 17.928l-4.382-9.692-4.467 9.692h8.849zM25.769 25.379c-0.679 0-1.311-0.109-1.895-0.326-0.584-0.217-1.098-0.513-1.54-0.886-0.442-0.374-0.787-0.817-1.033-1.329-0.245-0.513-0.367-1.064-0.367-1.654 0-0.591 0.152-1.129 0.452-1.617 0.301-0.486 0.721-0.907 1.259-1.263 0.536-0.355 1.182-0.634 1.937-0.834 0.754-0.2 1.583-0.299 2.487-0.299 0.792 0 1.588 0.066 2.389 0.195 0.802 0.13 1.522 0.309 2.163 0.534v-1.329c0-1.286-0.395-2.306-1.187-3.061-0.791-0.756-1.865-1.133-3.222-1.133-0.716 0-1.475 0.138-2.275 0.416-0.802 0.278-1.617 0.678-2.446 1.198l-0.536-0.886c1.885-1.182 3.674-1.772 5.37-1.772 1.772 0 3.167 0.473 4.184 1.42 1.018 0.947 1.527 2.253 1.527 3.921v6.618c0 0.435 0.207 0.651 0.621 0.651v1.172c-0.094 0.019-0.193 0.031-0.297 0.040-0.105 0.008-0.194 0.013-0.269 0.013-0.377 0-0.678-0.117-0.904-0.352-0.226-0.234-0.359-0.516-0.395-0.847v-1.12c-0.679 0.815-1.545 1.442-2.601 1.875-1.058 0.437-2.198 0.654-3.422 0.654zM26.050 24.338c1.092 0 2.097-0.191 3.011-0.574 0.914-0.382 1.617-0.886 2.105-1.511 0.301-0.365 0.452-0.713 0.452-1.042v-2.398c-0.678-0.243-1.385-0.425-2.121-0.546-0.734-0.121-1.497-0.183-2.289-0.183-0.736 0-1.405 0.074-2.007 0.222-0.604 0.148-1.122 0.351-1.555 0.612s-0.768 0.577-1.003 0.951c-0.236 0.373-0.353 0.786-0.353 1.237s0.094 0.877 0.282 1.277c0.189 0.398 0.452 0.743 0.792 1.030s0.739 0.512 1.201 0.676c0.461 0.166 0.956 0.248 1.483 0.248z"></path>
</symbol>
<symbol id="icon-icon-btn-lista" viewBox="0 0 35 32">
<title>icon-btn-lista</title>
<path d="M5.517 12.69c-0.919 0-1.702 0.322-2.345 0.966s-0.966 1.426-0.966 2.345c0 0.919 0.322 1.702 0.966 2.345s1.426 0.966 2.345 0.966c0.919 0 1.702-0.322 2.345-0.966s0.966-1.426 0.966-2.345c0-0.919-0.322-1.702-0.966-2.345-0.644-0.643-1.426-0.966-2.345-0.966z"></path>
<path d="M5.517 3.862c-0.919 0-1.702 0.322-2.345 0.966s-0.966 1.426-0.966 2.345 0.322 1.702 0.966 2.345c0.643 0.643 1.426 0.966 2.345 0.966s1.702-0.322 2.345-0.966c0.643-0.643 0.966-1.426 0.966-2.345s-0.322-1.702-0.966-2.345-1.426-0.966-2.345-0.966z"></path>
<path d="M5.517 21.517c-0.919 0-1.702 0.322-2.345 0.966-0.643 0.644-0.966 1.426-0.966 2.345 0 0.92 0.322 1.702 0.966 2.345 0.643 0.644 1.426 0.966 2.345 0.966s1.702-0.321 2.345-0.966c0.643-0.643 0.966-1.425 0.966-2.345 0-0.919-0.322-1.702-0.966-2.345s-1.426-0.966-2.345-0.966z"></path>
<path d="M32.94 5.129c-0.11-0.109-0.238-0.163-0.388-0.163h-20.966c-0.149 0-0.278 0.054-0.388 0.163-0.109 0.109-0.163 0.238-0.163 0.388v3.31c0 0.15 0.055 0.278 0.163 0.388 0.109 0.109 0.238 0.163 0.388 0.163h20.966c0.15 0 0.278-0.054 0.388-0.163 0.109-0.109 0.163-0.238 0.163-0.388v-3.31c0-0.149-0.055-0.278-0.163-0.388z"></path>
<path d="M32.552 13.793h-20.966c-0.149 0-0.278 0.054-0.388 0.163-0.109 0.109-0.163 0.238-0.163 0.388v3.31c0 0.15 0.055 0.279 0.163 0.388 0.109 0.11 0.238 0.163 0.388 0.163h20.966c0.15 0 0.278-0.054 0.388-0.163 0.109-0.109 0.163-0.238 0.163-0.388v-3.31c0-0.149-0.055-0.279-0.163-0.388-0.11-0.108-0.238-0.163-0.388-0.163z"></path>
<path d="M32.552 22.621h-20.966c-0.149 0-0.278 0.055-0.388 0.163-0.109 0.11-0.163 0.238-0.163 0.388v3.31c0 0.15 0.055 0.279 0.163 0.388 0.109 0.109 0.238 0.163 0.388 0.163h20.966c0.15 0 0.278-0.055 0.388-0.163 0.109-0.109 0.163-0.238 0.163-0.388v-3.31c0-0.15-0.055-0.279-0.163-0.388-0.11-0.108-0.238-0.163-0.388-0.163z"></path>
</symbol>
<symbol id="icon-icon-btn-video" viewBox="0 0 35 32">
<title>icon-btn-video</title>
<path d="M34.169 2.207h-33.027c-0.326 0-0.59 0.268-0.59 0.599v26.387c0 0.332 0.264 0.6 0.59 0.6h33.027c0.326 0 0.589-0.268 0.589-0.6v-26.387c0-0.331-0.264-0.599-0.589-0.599zM6.45 28.594h-4.718v-5.398h4.718v5.398zM6.45 21.997h-4.718v-5.397h4.718v5.397zM6.45 15.401h-4.718v-5.397h4.718v5.397zM6.45 8.803h-4.718v-5.397h4.718v5.397zM22.1 16.505l-6.487 4.198c-0.096 0.063-0.206 0.094-0.317 0.094-0.098 0-0.195-0.024-0.284-0.073-0.189-0.106-0.306-0.307-0.306-0.526v-8.396c0-0.22 0.117-0.42 0.306-0.526s0.418-0.097 0.6 0.020l6.488 4.199c0.169 0.11 0.271 0.3 0.271 0.505s-0.102 0.397-0.273 0.506zM33.579 28.594h-4.717v-5.398h4.717v5.398zM33.579 21.997h-4.717v-5.397h4.717v5.397zM33.579 15.401h-4.717v-5.397h4.717v5.397zM33.579 8.803h-4.717v-5.397h4.717v5.397z"></path>
</symbol>
<symbol id="icon-icon-btn-titulo" viewBox="0 0 35 32">
<title>icon-btn-titulo</title>
<path d="M8.488 6.621h3.905l6.833 18.498h-4.433l-1.451-4.142h-5.831l-1.425 4.142h-4.433l6.834-18.498zM12.63 18.031l-2.19-6.539-2.242 6.539h4.433zM24.289 25.379c-0.686 0-1.324-0.109-1.912-0.326-0.589-0.216-1.095-0.522-1.517-0.911-0.423-0.391-0.757-0.851-1.002-1.382-0.247-0.529-0.37-1.107-0.37-1.732 0-0.676 0.146-1.293 0.436-1.849s0.7-1.034 1.226-1.433c0.529-0.399 1.152-0.713 1.873-0.938 0.722-0.226 1.522-0.34 2.402-0.34 0.579 0 1.142 0.047 1.687 0.143 0.545 0.095 1.021 0.238 1.425 0.429v-0.625c0-1.581-0.922-2.371-2.77-2.371-0.757 0-1.478 0.126-2.164 0.378-0.685 0.252-1.406 0.629-2.163 1.133l-1.24-2.605c0.915-0.59 1.864-1.034 2.849-1.329s2.031-0.442 3.139-0.442c2.093 0 3.711 0.487 4.854 1.459s1.716 2.397 1.716 4.273v3.518c0 0.417 0.066 0.708 0.198 0.873 0.132 0.164 0.365 0.265 0.7 0.299v3.518c-0.37 0.087-0.704 0.143-1.002 0.169-0.299 0.026-0.573 0.040-0.818 0.040-0.792 0-1.39-0.152-1.794-0.456-0.405-0.305-0.66-0.734-0.765-1.29l-0.079-0.625c-0.616 0.781-1.35 1.38-2.202 1.798-0.854 0.416-1.756 0.625-2.706 0.625zM25.529 22.383c0.457 0 0.9-0.078 1.332-0.235s0.787-0.364 1.068-0.625c0.405-0.312 0.607-0.643 0.607-0.99v-1.303c-0.369-0.139-0.769-0.248-1.199-0.326-0.431-0.078-0.832-0.117-1.201-0.117-0.775 0-1.411 0.173-1.912 0.522-0.502 0.346-0.753 0.799-0.753 1.355 0 0.503 0.193 0.916 0.579 1.237 0.388 0.319 0.879 0.481 1.479 0.481z"></path>
</symbol>
<symbol id="icon-icon-btn-subtitle" viewBox="0 0 35 32">
<title>icon-btn-subtitle</title>
<path d="M9.303 6.621h2.658l7.593 18.498h-3.2l-2.034-5.028h-7.431l-2.007 5.028h-3.228l7.648-18.498zM13.724 17.928l-3.092-7.946-3.2 7.946h6.292zM24.949 25.379c-0.686 0-1.324-0.109-1.911-0.326-0.587-0.217-1.094-0.516-1.518-0.898-0.426-0.383-0.759-0.834-1.004-1.356-0.244-0.521-0.365-1.085-0.365-1.693 0-0.643 0.145-1.224 0.434-1.746 0.29-0.522 0.701-0.973 1.235-1.355 0.532-0.383 1.166-0.678 1.898-0.886 0.733-0.209 1.542-0.312 2.428-0.312 0.668 0 1.329 0.056 1.98 0.169s1.238 0.265 1.763 0.456v-0.938c0-1.007-0.299-1.793-0.896-2.358-0.596-0.565-1.455-0.847-2.577-0.847-0.759 0-1.505 0.135-2.237 0.404s-1.487 0.655-2.264 1.16l-0.922-1.824c1.825-1.181 3.724-1.771 5.695-1.771 1.953 0 3.471 0.478 4.556 1.433s1.628 2.327 1.628 4.117v4.924c0 0.608 0.263 0.921 0.787 0.939v2.449c-0.29 0.053-0.537 0.087-0.746 0.105s-0.412 0.025-0.61 0.025c-0.578 0-1.027-0.139-1.343-0.417-0.317-0.278-0.511-0.633-0.583-1.068l-0.082-0.86c-0.632 0.8-1.415 1.411-2.346 1.837s-1.931 0.638-2.998 0.638zM25.763 23.27c0.724 0 1.406-0.126 2.047-0.378 0.642-0.253 1.144-0.604 1.505-1.055 0.381-0.312 0.57-0.642 0.57-0.99v-1.798c-0.506-0.191-1.044-0.339-1.614-0.442-0.569-0.105-1.126-0.157-1.668-0.157-1.066 0-1.939 0.221-2.616 0.664s-1.017 1.030-1.017 1.759c0 0.678 0.262 1.247 0.787 1.707 0.524 0.459 1.193 0.69 2.007 0.69z"></path>
</symbol>
<symbol id="icon-icon-btn-imagens" viewBox="0 0 35 32">
<title>icon-btn-imagens</title>
<path d="M34.217 2.207h-33.123c-0.299 0-0.542 0.248-0.542 0.554v26.478c0 0.306 0.243 0.554 0.542 0.554h33.123c0.299 0 0.542-0.248 0.542-0.554v-26.478c0-0.306-0.243-0.554-0.542-0.554zM31.507 25.375l-7.454-7.892c-0.082-0.087-0.216-0.093-0.306-0.013l-5.17 4.653-6.609-8.319c-0.043-0.054-0.106-0.085-0.177-0.084-0.068 0.001-0.132 0.035-0.173 0.092l-7.816 10.723v-19.004h27.703v19.843z"></path>
<path d="M23.321 13.536c1.468 0 2.658-1.217 2.658-2.719 0-1.501-1.191-2.719-2.658-2.719-1.469 0-2.659 1.218-2.659 2.719 0 1.502 1.191 2.719 2.659 2.719z"></path>
</symbol>
<symbol id="icon-icon-btn-descricao" viewBox="0 0 35 32">
<title>icon-btn-descricao</title>
<path d="M32 6.069c0-0.662-0.479-1.103-1.195-1.103h-26.298c-0.717 0-1.195 0.441-1.195 1.103v2.207c0 0.662 0.479 1.103 1.195 1.103h26.298c0.716 0 1.195-0.441 1.195-1.103v-2.207z"></path>
<path d="M32 14.897c0-0.662-0.479-1.103-1.195-1.103h-26.298c-0.717 0-1.195 0.441-1.195 1.103v2.207c0 0.662 0.479 1.103 1.195 1.103h26.298c0.716 0 1.195-0.441 1.195-1.103v-2.207z"></path>
<path d="M32 23.724c0-0.662-0.479-1.103-1.195-1.103h-26.298c-0.717 0-1.195 0.441-1.195 1.103v2.207c0 0.662 0.479 1.103 1.195 1.103h26.298c0.716 0 1.195-0.441 1.195-1.103v-2.207z"></path>
</symbol>
<symbol id="icon-icon-btn-botao" viewBox="0 0 35 32">
<title>icon-btn-botao</title>
<path d="M16.169 9.395l-0.003 0.004c-0.268-0.246-0.62-0.399-1.011-0.399-0.828 0-1.5 0.672-1.5 1.5 0 0.438 0.19 0.828 0.489 1.102l-0.003 0.004 4.794 4.394-4.794 4.395 0.003 0.003c-0.299 0.274-0.489 0.664-0.489 1.101 0 0.828 0.672 1.5 1.5 1.5 0.391 0 0.743-0.153 1.011-0.397l0.003 0.003 6.001-5.5c0.309-0.285 0.486-0.685 0.486-1.106s-0.177-0.821-0.486-1.106l-6.001-5.5zM17.655 0c-8.836 0-16 7.164-16 16s7.164 16 16 16 16-7.164 16-16-7.164-16-16-16zM17.655 29c-7.168 0-13-5.832-13-13s5.832-13 13-13 13 5.832 13 13-5.832 13-13 13z"></path>
</symbol>
</defs>
</svg>
